# xmcd
#
# Track frame offsets: 
#        150
#        21667
#        33445
#        56390
#        69862
#        91727
#        108070
#        129055
#        137977
#        161562
#        174040
#
# Disc length: 2784 seconds
#
# Revision: 6
# Processed by: cddbd v1.5.2PL0 Copyright (c) Steve Scherf et al.
# Submitted via: ExactAudioCopy v0.99pb5
#
DISCID=7e0ade0b
DTITLE=Shirley Horn - You're My Thrill
DYEAR=2001
DGENRE=Jazz
TTITLE0=You're My Thrill
TTITLE1=The Best Is Yet to Come
TTITLE2=Solitary Moon
TTITLE3=Sharing the Night With the Blues
TTITLE4=I Got Lost in His Arms
TTITLE5=The Rules of the Road
TTITLE6=My Heart Stood Still
TTITLE7=You'd Better Love Me (While You May)
TTITLE8=The Very Thought of You
TTITLE9=Why Don't You Do Right?
TTITLE10=All Night Long
EXTD=YEAR: 2001
EXTT0=
EXTT1=
EXTT2=
EXTT3=
EXTT4=
EXTT5=
EXTT6=
EXTT7=
EXTT8=
EXTT9=
EXTT10=
PLAYORDER=
